
<svg viewBox="104.52 90.395 323.164 297.741" xmlns="http://www.w3.org/2000/svg">
  <g transform="matrix(0.31934, 0, 0, -0.308937, 103.93483, 398.390564)" fill="#000000" stroke="none" style="">
    <path d="M 427 938 C 390 874 25 178 17 158 C 11 141 23 140 185 140 C 336 140 366.077 138.342 361.077 151.342 C 356.077 163.342 384.152 175.486 274.152 175.486 C 200.152 175.486 80 174 80 179 C 80 193 448 884 457 887 C 461 888 505.538 820.281 521.538 791.281 C 542.538 755.281 545.384 765.712 561.384 763.712 C 591.384 758.712 577 781 507 893 L 452 981 L 427 938 Z" style="fill: rgb(255, 9, 0);"/>
    <path d="M 588 707 C 593 652 578 616 492 483 C 454 424 415 353 405 326 C 383 270 381 195 399 162 C 409 143 419 140 476 140 C 535 140 541 142 535 157 C 531 167 526 200 523 231 C 516 303 538 352 648 514 C 729 632 748 677 736 725 C 730 749 726 750 657 750 L 585 750 L 588 707 Z" style=""/>
    <path d="M 768 705 C 773 651 754 611 669 494 C 582 373 556 317 556 245 C 556 212 561 175 568 162 L 581 139 L 613 159 C 631 169 649 188 655 199 C 660 211 672 220 681 220 C 692 220 697 231 698 261 C 700 316 736 386 820 505 C 860 560 895 610 898 615 C 902 621 923 633 945 641 C 975 652 987 663 993 687 C 1010 746 1003 750 878 750 L 765 750 L 768 705 Z" style=""/>
    <path d="M 756 368 C 736 328 719 279 718 260 L 715 225 L 795 222 C 926 218 950 204 893 161 L 865 141 L 927 140 L 989 140 L 897 289 C 846 372 802 439 798 439 C 794 440 775 407 756 368 Z" style=""/>
    <path d="M 680 192 C 680 187 655 166 625 145 C 536 84 526 40 601 40 C 630 40 641 44 637 53 C 628 78 651 110 709 150 C 743 172 770 193 770 195 C 770 198 750 200 725 200 C 700 200 680 196 680 192 Z" style="fill: rgb(255, 9, 0);"/>
    <path d="M 800 191 C 800 186 775 165 744 144 C 713 123 684 98 679 88 C 663 59 679 40 720 40 C 756 40 759 42 762 72 C 765 100 775 112 834 152 L 904 200 L 852 200 C 823 200 800 196 800 191 Z" style="fill: rgb(255, 9, 0);"/>
  </g>
</svg>